<svg width="1200" height="630" viewBox="0 0 1200 630" fill="none" xmlns="http://www.w3.org/2000/svg">
  <defs>
    <linearGradient id="bg" x1="0" y1="0" x2="1200" y2="630" gradientUnits="userSpaceOnUse">
      <stop stop-color="#0D1B2A"/>
      <stop offset="1" stop-color="#1B263B"/>
    </linearGradient>
  </defs>
  <rect width="1200" height="630" fill="url(#bg)"/>
  <rect x="50" y="50" width="1100" height="80" rx="12" fill="#243B55"/>
  <rect x="80" y="75" width="260" height="30" rx="8" fill="#3C5A76"/>
  <rect x="390" y="75" width="160" height="30" rx="8" fill="#2A485F"/>
  <rect x="600" y="75" width="200" height="30" rx="8" fill="#2A485F"/>
  <rect x="50" y="170" width="340" height="140" rx="14" fill="#2E4A62"/>
  <rect x="430" y="170" width="340" height="140" rx="14" fill="#2E4A62"/>
  <rect x="810" y="170" width="340" height="140" rx="14" fill="#2E4A62"/>
  <rect x="50" y="350" width="720" height="230" rx="14" fill="#22384E"/>
  <polyline points="90,520 200,470 310,500 420,420 530,450 640,390 750,430" fill="none" stroke="#7DE2DB" stroke-width="8"/>
  <rect x="810" y="350" width="340" height="230" rx="14" fill="#22384E"/>
  <rect x="850" y="390" width="260" height="20" rx="10" fill="#3C5A76"/>
  <rect x="850" y="430" width="220" height="20" rx="10" fill="#3C5A76"/>
  <rect x="850" y="470" width="240" height="20" rx="10" fill="#3C5A76"/>
  <text x="70" y="610" fill="#B8CCE0" font-size="28" font-family="Arial, sans-serif">E-commerce Analytics • Dashboard Preview</text>
</svg>
